<svg class="svgBody" width="270" height="210" viewBox="0 0 270 210" xmlns="http://www.w3.org/2000/svg"><rect width="270" height="210" rx="10" style="fill:#bedcfa" /><rect y="150" width="270" height="60" rx="10" style="fill:#da9ff9" /><rect y="60" width="270" height="75" style="fill:#98acf8"/><rect y="130" width="270" height="40" style="fill:#b088f9" /><text x="15" y="30" class="medium">COOP BOND:</text><text x="17" y="45" class="small" opacity="0.5">819798275773887334767344</text>
<svg viewBox="-1600 215 2000 900">
<path d="M34.9755 2.30389L129.327 57.5039L224.063 2.30389L255.097 20.736L129.327 93.0239L4.32568 20.736L34.9755 2.30389Z" fill="#40845F"/>
<path d="M129.327 93.0237V239.52L160.938 221.28V110.304L255.097 57.5997V20.7357L129.327 93.0237Z" fill="#00F97C"/>
<path d="M129.327 93.0237V239.52L97.7149 221.28V110.304L3.55615 57.5997V20.7357L129.327 93.0237Z" fill="#05301C"/>
</svg><text x="175" y="80" class="small">BEAN SPROUT</text><text x="15" y="80" class="medium">ID> 1</text><text x="15" y="100" class="medium">STATUS:</text><rect x="15" y="105" width="120" height="20" style="fill:white;opacity:0.5"/><text x="15" y="120" class="medium">Egg</text><text x="15" y="145" class="small">BONDED ROOTS:</text><text x="110" y="145" class="small" opacity="0.75">0</text><text x="15" y="160" class="small">BROOT GAINED:</text><text x="110" y="160" class="small" opacity="0.75">0</text><text x="15" y="180" class="tiny">A national debt, if it is not excessive,</text><text x="15" y="190" class="tiny">will be to us a national blessing.</text><text x="15" y="200" class="tiny">- Alexander Hamilton, Letter to Robert Morris, April 30, 1781</text><style>.svgBody {font-family: "Courier New" } .tiny {font-size:6px; } .small {font-size: 12px;}.medium {font-size: 18px;}</style></svg>
